{
  "accessors": [
    {
      "bufferView": 2,
      "componentType": 5126,
      "count": 1110,
      "max": [
        7.087360858917236,
        7.115535736083984,
        7.087867736816406
      ],
      "min": [
        -7.018576622009277,
        -7.120255470275879,
        -30.558042526245117
      ],
      "type": "VEC3"
    },
    {
      "bufferView": 2,
      "byteOffset": 13320,
      "componentType": 5126,
      "count": 1110,
      "max": [
        0.9946478009223938,
        1.0,
        0.9967606663703918
      ],
      "min": [
        -0.9902681112289429,
        -0.9993937015533447,
        -1.0
      ],
      "type": "VEC3"
    },
    {
      "bufferView": 3,
      "componentType": 5126,
      "count": 1110,
      "max": [
        0.9999901652336121,
        0.9995803833007813,
        0.9983651638031006,
        1.0
      ],
      "min": [
        -1.0,
        -0.9980388879776001,
        -0.9980382323265076,
        -1.0
      ],
      "type": "VEC4"
    },
    {
      "bufferView": 1,
      "componentType": 5126,
      "count": 1110,
      "max": [
        0.9821689128875732,
        0.9817089438438416
      ],
      "min": [
        0.021651044487953186,
        0.06433844566345215
      ],
      "type": "VEC2"
    },
    {
      "bufferView": 1,
      "byteOffset": 8880,
      "componentType": 5126,
      "count": 1110,
      "max": [
        0.9452522397041321,
        0.9459173083305359
      ],
      "min": [
        0.05365411192178726,
        0.1351635754108429
      ],
      "type": "VEC2"
    },
    {
      "bufferView": 0,
      "componentType": 5125,
      "count": 4488,
      "type": "SCALAR"
    }
  ],
  "asset": {
    "extras": {
      "author": "beyondmatter (https://sketchfab.com/beyondmatter)",
      "license": "CC-BY-4.0 (http://creativecommons.org/licenses/by/4.0/)",
      "source": "https://sketchfab.com/3d-models/spray-can-24f0c5db0f4548f09bbdc57cc61a4353",
      "title": "Spray can"
    },
    "generator": "Sketchfab-12.68.0",
    "version": "2.0"
  },
  "bufferViews": [
    {
      "buffer": 0,
      "byteLength": 17952,
      "name": "floatBufferViews",
      "target": 34963
    },
    {
      "buffer": 0,
      "byteLength": 17760,
      "byteOffset": 17952,
      "byteStride": 8,
      "name": "floatBufferViews",
      "target": 34962
    },
    {
      "buffer": 0,
      "byteLength": 26640,
      "byteOffset": 35712,
      "byteStride": 12,
      "name": "floatBufferViews",
      "target": 34962
    },
    {
      "buffer": 0,
      "byteLength": 17760,
      "byteOffset": 62352,
      "byteStride": 16,
      "name": "floatBufferViews",
      "target": 34962
    }
  ],
  "buffers": [
    {
      "byteLength": 80112,
      "uri": "scene.bin"
    }
  ],
  "images": [
    {
      "uri": "textures/RootNode_baseColor.png"
    },
    {
      "uri": "textures/RootNode_metallicRoughness.png"
    },
    {
      "uri": "textures/RootNode_normal.png"
    }
  ],
  "materials": [
    {
      "doubleSided": true,
      "name": "RootNode",
      "normalTexture": {
        "index": 2
      },
      "pbrMetallicRoughness": {
        "baseColorTexture": {
          "index": 0
        },
        "metallicRoughnessTexture": {
          "index": 1
        }
      }
    }
  ],
  "meshes": [
    {
      "name": "spraycan_LP__0",
      "primitives": [
        {
          "attributes": {
            "NORMAL": 1,
            "POSITION": 0,
            "TANGENT": 2,
            "TEXCOORD_0": 3,
            "TEXCOORD_1": 4
          },
          "indices": 5,
          "material": 0,
          "mode": 4
        }
      ]
    }
  ],
  "nodes": [
    {
      "children": [
        1
      ],
      "matrix": [
        0.05869448901209795,
        -0.028592692217462422,
        0.05196895887136898,
        0.0,
        0.05531763312973936,
        1.5030632836872256e-17,
        -0.06247653158993405,
        0.0,
        0.02140733307254883,
        0.07839524967394595,
        0.01895436666989871,
        0.0,
        3.128662347793579,
        -0.6405497193336492,
        2.5604827404022217,
        1.0
      ],
      "name": "Sketchfab_model"
    },
    {
      "children": [
        2
      ],
      "matrix": [
        1.0,
        0.0,
        0.0,
        0.0,
        0.0,
        0.0,
        1.0,
        0.0,
        0.0,
        -1.0,
        0.0,
        0.0,
        0.0,
        0.0,
        0.0,
        1.0
      ],
      "name": "801167fb206845f99ec73654d5c713bb.fbx"
    },
    {
      "children": [
        3
      ],
      "name": "RootNode"
    },
    {
      "children": [
        4
      ],
      "matrix": [
        1.0,
        0.0,
        0.0,
        0.0,
        0.0,
        2.220446049250313e-16,
        -1.0,
        0.0,
        0.0,
        1.0,
        2.220446049250313e-16,
        0.0,
        0.20381185412406921,
        -11.735087394714355,
        0.08706973493099213,
        1.0
      ],
      "name": "spraycan_LP"
    },
    {
      "children": [
        5
      ],
      "matrix": [
        1.0,
        0.0,
        -0.0,
        0.0,
        0.0,
        1.0,
        0.0,
        0.0,
        0.0,
        0.0,
        1.0,
        0.0,
        -0.03439211845397949,
        0.0023598670959472656,
        11.735087394714355,
        1.0
      ],
      "name": "Object_4"
    },
    {
      "mesh": 0,
      "name": "spraycan_LP__0"
    }
  ],
  "samplers": [
    {
      "magFilter": 9729,
      "minFilter": 9987,
      "wrapS": 10497,
      "wrapT": 10497
    }
  ],
  "scene": 0,
  "scenes": [
    {
      "name": "Sketchfab_Scene",
      "nodes": [
        0
      ]
    }
  ],
  "textures": [
    {
      "sampler": 0,
      "source": 0
    },
    {
      "sampler": 0,
      "source": 1
    },
    {
      "sampler": 0,
      "source": 2
    }
  ]
}
